<svg width="59" height="66" viewBox="0 0 59 66" fill="none" xmlns="http://www.w3.org/2000/svg">
<path d="M42.2101 43.9763C46.8512 42.7479 50.8706 40.0939 53.8338 36.3011C57.467 31.6508 59.049 25.8666 58.2884 20.0138C57.5279 14.1623 54.5166 8.97053 49.8133 5.40407C45.2564 1.94656 39.5971 0.437509 33.878 1.15492C28.1591 1.87229 23.0475 4.73234 19.4849 9.20784C16.4308 13.0447 14.7845 17.6569 14.7239 22.5461C14.6255 30.4832 11.9502 38.2094 7.19058 44.3015L1.98258 50.9674C-0.327548 53.9242 0.198574 58.2091 3.1554 60.5193L8.14321 64.4162C11.1 66.7263 15.385 66.2 17.6951 63.2433L22.9027 56.5779C27.7151 50.4186 34.3769 46.0494 42.2101 43.9763ZM17.5282 22.581C17.5809 18.3202 19.0163 14.2998 21.679 10.9546C28.076 2.91825 39.9365 1.43054 48.118 7.63832C52.2201 10.7554 54.8442 15.2743 55.507 20.3755C56.1703 25.4779 54.791 30.5206 51.6237 34.5746C49.0404 37.8811 45.5371 40.1947 41.4924 41.2652C33.2388 43.4497 26.1637 47.9936 20.9981 54.4205L9.72185 45.6105C14.6562 39.1045 17.4245 30.9482 17.5282 22.581ZM4.77767 51.9452L5.47661 51.0506L15.7585 61.1671L15.4852 61.5168C15.3413 61.701 15.182 61.8655 15.0145 62.0172L4.77767 51.9452ZM7.21454 48.8261L7.99831 47.8229L19.2909 56.6457L17.4964 58.9426L7.21454 48.8261ZM4.88192 58.3094C3.69486 57.382 3.17553 55.9133 3.39729 54.5213L12.0587 63.0434C11.2875 62.9915 10.5236 62.7169 9.86999 62.2063L4.88203 58.3093L4.88192 58.3094Z" fill="black"/>
</svg>
